<mxfile host="app.diagrams.net" agent="Mozilla/5.0 (Macintosh; Intel Mac OS X 10_15_7) AppleWebKit/537.36 (KHTML, like Gecko) Chrome/133.0.0.0 Safari/537.36" version="26.0.16">
  <diagram name="Page-1" id="_KWG_sHZByaikYRzJTNx">
    <mxGraphModel dx="1590" dy="2125" grid="1" gridSize="10" guides="1" tooltips="1" connect="1" arrows="1" fold="1" page="1" pageScale="1" pageWidth="850" pageHeight="1100" math="0" shadow="0">
      <root>
        <mxCell id="0" />
        <mxCell id="1" parent="0" />
        <mxCell id="gep-1MUoJwfHsoseHByX-3" value="&lt;font style=&quot;font-size: 17px;&quot;&gt;Amazon&lt;/font&gt;" style="rounded=0;whiteSpace=wrap;html=1;" vertex="1" parent="1">
          <mxGeometry x="320" y="-320" width="240" height="50" as="geometry" />
        </mxCell>
        <mxCell id="gep-1MUoJwfHsoseHByX-4" value="- vendor Vendor" style="rounded=0;whiteSpace=wrap;html=1;align=left;" vertex="1" parent="1">
          <mxGeometry x="320" y="-270" width="240" height="60" as="geometry" />
        </mxCell>
        <mxCell id="gep-1MUoJwfHsoseHByX-5" value="+createVendor" style="rounded=0;whiteSpace=wrap;html=1;align=left;" vertex="1" parent="1">
          <mxGeometry x="320" y="-210" width="240" height="60" as="geometry" />
        </mxCell>
        <mxCell id="gep-1MUoJwfHsoseHByX-6" value="&lt;font style=&quot;font-size: 15px;&quot;&gt;Product&lt;/font&gt;" style="rounded=0;whiteSpace=wrap;html=1;" vertex="1" parent="1">
          <mxGeometry x="354" y="250" width="180" height="60" as="geometry" />
        </mxCell>
        <mxCell id="gep-1MUoJwfHsoseHByX-7" value="# String Name&lt;div&gt;# String Description&lt;/div&gt;&lt;div&gt;# float Rating&lt;/div&gt;&lt;div&gt;+ Int Units Sold&lt;/div&gt;" style="rounded=0;whiteSpace=wrap;html=1;align=left;" vertex="1" parent="1">
          <mxGeometry x="354" y="310" width="180" height="100" as="geometry" />
        </mxCell>
        <mxCell id="gep-1MUoJwfHsoseHByX-9" value="&lt;font style=&quot;font-size: 15px;&quot;&gt;Goods&lt;/font&gt;" style="rounded=0;whiteSpace=wrap;html=1;" vertex="1" parent="1">
          <mxGeometry x="600" y="630" width="180" height="60" as="geometry" />
        </mxCell>
        <mxCell id="gep-1MUoJwfHsoseHByX-10" value="+ String Expiration Date&lt;div&gt;+ Int Quantity&amp;nbsp;&lt;/div&gt;&lt;div&gt;&lt;br&gt;&lt;/div&gt;" style="rounded=0;whiteSpace=wrap;html=1;align=left;" vertex="1" parent="1">
          <mxGeometry x="600" y="690" width="180" height="100" as="geometry" />
        </mxCell>
        <mxCell id="gep-1MUoJwfHsoseHByX-11" value="&lt;font style=&quot;font-size: 15px;&quot;&gt;Media&lt;/font&gt;" style="rounded=0;whiteSpace=wrap;html=1;" vertex="1" parent="1">
          <mxGeometry x="90" y="640" width="180" height="60" as="geometry" />
        </mxCell>
        <mxCell id="gep-1MUoJwfHsoseHByX-12" value="+ String Type&lt;div&gt;+ String Target Audience&lt;/div&gt;&lt;div&gt;+ Int Access Code&lt;/div&gt;" style="rounded=0;whiteSpace=wrap;html=1;align=left;" vertex="1" parent="1">
          <mxGeometry x="90" y="700" width="180" height="100" as="geometry" />
        </mxCell>
        <mxCell id="gep-1MUoJwfHsoseHByX-13" value="- isAvailable&lt;div&gt;- updateQuantity&lt;/div&gt;" style="rounded=0;whiteSpace=wrap;html=1;align=left;" vertex="1" parent="1">
          <mxGeometry x="600" y="760" width="180" height="60" as="geometry" />
        </mxCell>
        <mxCell id="gep-1MUoJwfHsoseHByX-14" value="" style="endArrow=classic;html=1;rounded=0;entryX=0.5;entryY=0;entryDx=0;entryDy=0;" edge="1" parent="1" target="gep-1MUoJwfHsoseHByX-9">
          <mxGeometry width="50" height="50" relative="1" as="geometry">
            <mxPoint x="510" y="460" as="sourcePoint" />
            <mxPoint x="540" y="560" as="targetPoint" />
            <Array as="points">
              <mxPoint x="450" y="520" />
            </Array>
          </mxGeometry>
        </mxCell>
        <mxCell id="gep-1MUoJwfHsoseHByX-15" value="" style="endArrow=classic;html=1;rounded=0;entryX=0.5;entryY=0;entryDx=0;entryDy=0;exitX=0.5;exitY=1;exitDx=0;exitDy=0;" edge="1" parent="1" source="gep-1MUoJwfHsoseHByX-23" target="gep-1MUoJwfHsoseHByX-11">
          <mxGeometry width="50" height="50" relative="1" as="geometry">
            <mxPoint x="370" y="460" as="sourcePoint" />
            <mxPoint x="490" y="300" as="targetPoint" />
          </mxGeometry>
        </mxCell>
        <mxCell id="gep-1MUoJwfHsoseHByX-16" value="&lt;font style=&quot;font-size: 18px;&quot;&gt;Vendor&lt;/font&gt;" style="rounded=0;whiteSpace=wrap;html=1;" vertex="1" parent="1">
          <mxGeometry x="320" y="-120" width="240" height="60" as="geometry" />
        </mxCell>
        <mxCell id="gep-1MUoJwfHsoseHByX-17" value="+ displayInfo&lt;div&gt;+modifyPassword&lt;/div&gt;&lt;div&gt;+createProduct&lt;/div&gt;&lt;div&gt;+displayProducts&lt;/div&gt;&lt;div&gt;+ displayKthProduct&lt;/div&gt;&lt;div&gt;+modifyProduct&lt;/div&gt;&lt;div&gt;+ sell Product&lt;/div&gt;&lt;div&gt;+ deleteProduct&lt;/div&gt;" style="rounded=0;whiteSpace=wrap;html=1;align=left;" vertex="1" parent="1">
          <mxGeometry x="320" y="30" width="240" height="130" as="geometry" />
        </mxCell>
        <mxCell id="gep-1MUoJwfHsoseHByX-18" value="" style="endArrow=classic;html=1;rounded=0;exitX=0.5;exitY=1;exitDx=0;exitDy=0;entryX=0.5;entryY=0;entryDx=0;entryDy=0;" edge="1" parent="1" source="gep-1MUoJwfHsoseHByX-5" target="gep-1MUoJwfHsoseHByX-16">
          <mxGeometry width="50" height="50" relative="1" as="geometry">
            <mxPoint x="190" y="160" as="sourcePoint" />
            <mxPoint x="240" y="230" as="targetPoint" />
          </mxGeometry>
        </mxCell>
        <mxCell id="gep-1MUoJwfHsoseHByX-20" value="" style="endArrow=classic;startArrow=classic;html=1;rounded=0;exitX=0.5;exitY=0;exitDx=0;exitDy=0;entryX=0.5;entryY=1;entryDx=0;entryDy=0;" edge="1" parent="1" source="gep-1MUoJwfHsoseHByX-6" target="gep-1MUoJwfHsoseHByX-17">
          <mxGeometry width="50" height="50" relative="1" as="geometry">
            <mxPoint x="190" y="160" as="sourcePoint" />
            <mxPoint x="240" y="110" as="targetPoint" />
          </mxGeometry>
        </mxCell>
        <mxCell id="gep-1MUoJwfHsoseHByX-21" value="&lt;div&gt;- String Username&lt;/div&gt;&lt;div&gt;- String Email Address&lt;/div&gt;&lt;div&gt;- String Password&lt;/div&gt;&lt;div&gt;- String Bio&lt;/div&gt;&lt;div&gt;- String Profile Picture (img path)&lt;/div&gt;&lt;div&gt;- Products [] products&lt;/div&gt;" style="rounded=0;whiteSpace=wrap;html=1;align=left;" vertex="1" parent="1">
          <mxGeometry x="320" y="-60" width="240" height="90" as="geometry" />
        </mxCell>
        <mxCell id="gep-1MUoJwfHsoseHByX-23" value="+getName&lt;div&gt;+getDescription&lt;/div&gt;&lt;div&gt;+getRating&amp;nbsp;&lt;/div&gt;&lt;div&gt;+getSoldCount&amp;nbsp;&lt;/div&gt;&lt;div&gt;+setName&lt;/div&gt;&lt;div&gt;+setDescription&lt;/div&gt;&lt;div&gt;+incrementSoldCount&lt;/div&gt;" style="rounded=0;whiteSpace=wrap;html=1;align=left;" vertex="1" parent="1">
          <mxGeometry x="354" y="410" width="186" height="110" as="geometry" />
        </mxCell>
      </root>
    </mxGraphModel>
  </diagram>
</mxfile>
